PathFileType	4	(X/Y/Z)	D:\TRACE\spotREDO_2-26-24\spot_justArm_Motion_3_3-v60.trc
DataRate	CameraRate	NumFrames	NumMarkers	Units	OrigDataRate	OrigDataStartFrame	OrigNumFrames
100.00	100.00	      38	9	mm	100.00	4975	      6633
Frame#	Time	front left toe			Front right toe			aft left toe			aft right toe			Arm			FL body			FR body			AL Body			AR Body			
		X1	Y1	Z1	X2	Y2	Z2	X3	Y3	Z3	X4	Y4	Z4	X5	Y5	Z5	X6	Y6	Z6	X7	Y7	Z7	X8	Y8	Z8	X9	Y9	Z9	

4975	49.740	-142.11374	25.88681	-277.24948	352.22321	27.59021	-247.71111	-176.61874	18.42704	341.21353	311.87988	22.33732	371.13297	-15.82501	675.69775	-836.63550	31.77089	559.75952	-320.17633	186.74385	565.86469	-312.69583	-17.41782	548.51227	562.69342	130.04485	550.10028	571.06018	
4976	49.750	-141.62061	26.08536	-277.25430	353.04428	27.75974	-247.62659	-176.37555	18.41633	341.22131	312.68839	22.38663	371.15381	-15.51378	675.75525	-836.60925	32.43473	559.69397	-320.18103	187.20044	565.79163	-312.87134	-16.93697	548.60486	562.62793	130.80786	550.18024	571.15479	
4977	49.760	-140.93040	26.11493	-277.16580	353.60394	28.05254	-247.54842	-175.75136	18.20188	341.29120	313.15833	22.37868	371.21136	-15.24173	675.77094	-836.56256	32.81922	559.70032	-320.26453	187.87837	565.67175	-312.96518	-16.08865	548.73279	562.58813	131.67316	550.19830	571.01874	
4978	49.770	-140.50111	26.15514	-277.09616	353.95157	28.17974	-247.36731	-175.08083	18.02414	341.39099	313.48956	22.23779	371.25598	-14.94690	675.74139	-836.59467	33.42757	559.67743	-320.33005	188.80881	565.42261	-312.92953	-15.36094	548.91217	562.50189	132.59062	550.27490	571.34039	
4979	49.780	-140.23035	26.16927	-277.08249	354.31689	28.13198	-247.36081	-174.54085	17.89634	341.45172	313.93741	22.14252	371.23318	-12.92395	675.73547	-835.31140	33.96252	559.66309	-320.37473	189.30286	565.28217	-312.85229	-14.82328	549.07385	562.35358	133.22050	550.33075	571.32245	
4980	49.790	-139.78796	26.19314	-277.02747	354.68219	28.57925	-246.98891	-173.90079	17.81890	341.56036	314.23233	22.05280	371.26740	-14.31550	675.73474	-836.78314	34.58866	559.67395	-320.44632	189.64128	565.19379	-312.88184	-14.25151	549.13409	562.29968	133.98413	550.41913	571.30334	
4981	49.800	-139.46033	26.31171	-276.87286	355.06583	28.74560	-246.81326	-173.92015	17.96356	341.45938	314.44278	21.88201	371.31250	-13.98045	675.71228	-836.81488	35.20120	559.68579	-320.55096	190.40361	565.07806	-312.96027	-13.76785	549.16870	562.04999	134.24895	550.41132	570.96344	
4982	49.810	-139.10300	26.54924	-276.87360	355.23022	28.94436	-246.62344	-173.69781	17.94754	341.43179	315.09390	21.87204	371.29984	-13.69502	675.67664	-836.83588	35.88408	559.55774	-320.55701	190.83791	564.96033	-313.09180	-12.83607	549.29016	562.22314	135.07184	550.44232	570.94043	
4983	49.820	-138.81099	26.65575	-276.81641	355.18930	27.59084	-247.95062	-173.32637	17.76691	341.46368	315.68021	21.78793	371.35065	-13.49841	675.65234	-836.82263	36.57145	559.42377	-320.48584	191.23958	564.78351	-313.24933	-12.25901	549.38800	562.34949	135.67361	550.49286	570.82471	
4984	49.830	-138.61533	26.86826	-276.76837	355.43011	27.71889	-247.82899	-172.94113	17.56322	341.53931	315.77505	21.56276	371.46756	-13.26445	675.62964	-836.88916	37.08475	559.33179	-320.50452	192.10364	564.40710	-313.24081	-11.57134	549.62506	562.22955	136.71638	550.58142	570.88690	
4985	49.840	-138.43109	26.96060	-276.73944	355.76535	27.91144	-247.71237	-172.77689	17.49290	341.58218	315.95203	21.42788	371.62128	-11.31079	675.74274	-835.46600	37.62652	559.10803	-320.57260	192.76033	564.15314	-313.27264	-10.92722	549.72009	562.14490	137.62292	550.47449	571.01996	
4986	49.850	-138.33160	27.12913	-276.70850	355.96875	28.07960	-247.52538	-172.61877	17.42551	341.61578	316.13989	21.05790	371.72107	-12.29807	675.44385	-836.41614	38.19324	558.99744	-320.54468	193.15285	563.89471	-313.31937	-10.15478	549.83984	562.21887	138.45151	550.67902	570.93829	
4987	49.860	-138.21539	27.24257	-276.74060	355.98874	28.20061	-247.48903	-172.58115	17.35074	341.60980	316.20831	20.76877	371.74014	-12.16665	675.50165	-836.52161	38.86386	558.80151	-320.54910	193.69655	563.65094	-313.29138	-9.37041	550.01788	562.26416	138.75465	550.63080	570.66882	
4988	49.870	-137.96581	27.40052	-276.70160	356.43600	28.45503	-247.19688	-172.50465	17.24795	341.58459	316.25192	20.61926	371.80167	-11.81169	675.42780	-836.50452	39.26958	558.67627	-320.54501	194.26506	563.40546	-313.34671	-8.64009	550.26837	562.25378	139.43578	550.63782	570.71552	
4989	49.880	-137.90419	27.76446	-276.55774	356.43832	28.61951	-247.14278	-172.40199	17.10114	341.62231	316.32101	20.40332	371.83124	-11.51653	675.41010	-836.46014	39.77111	558.56329	-320.59875	194.85216	563.11401	-313.40073	-8.29208	550.36273	562.18225	140.27386	550.74365	570.59796	
4990	49.890	-137.86067	27.97617	-276.41989	356.80225	29.18108	-246.51707	-172.36557	16.95956	341.60339	316.48270	20.11148	371.99039	-11.20394	675.38507	-836.38715	39.98915	558.75220	-321.10379	195.52888	562.78027	-313.40085	-7.74978	550.48767	562.10693	140.85464	550.85803	570.53870	
4991	49.900	-137.95551	28.20130	-276.38135	356.53775	28.85096	-246.87994	-172.36894	16.80943	341.66516	316.40723	19.79198	372.05954	-10.89328	675.23883	-836.52521	40.47723	558.50775	-321.06232	196.37337	562.44879	-313.41327	-6.63640	550.73669	561.97314	141.44939	550.97357	570.52966	
4992	49.910	-137.87485	28.41597	-276.29813	356.76434	29.46439	-246.43779	-172.32364	16.74717	341.74435	316.36911	19.69193	372.11594	-8.67958	675.10291	-835.08350	41.71542	557.89484	-320.52237	196.78304	562.22424	-313.61008	-6.05844	551.13232	562.13617	142.23233	551.04321	570.54620	
4993	49.920	-137.79897	28.66474	-276.13086	356.98898	29.77174	-246.27498	-172.32419	16.53360	341.88547	316.44965	19.52491	372.11768	-10.33890	674.98273	-836.68359	42.24758	557.75476	-320.53644	197.22224	561.87091	-313.50510	-5.70646	551.32831	562.03717	142.83414	551.03986	570.51343	
4994	49.930	-137.74146	28.85898	-275.99634	356.96164	29.94168	-246.20459	-172.30592	16.33985	341.90201	316.39053	19.22448	372.10785	-10.20032	674.91260	-836.64246	42.75212	557.64594	-320.59207	197.57072	561.50647	-313.54315	-5.17089	551.46729	561.96466	143.20114	551.11517	570.49463	
4995	49.940	-137.69499	29.06281	-275.90738	356.92307	30.09393	-246.00897	-172.30855	16.12626	341.96387	316.51917	18.79576	372.28918	-9.92408	674.88287	-836.57214	43.22062	557.50201	-320.62244	198.32841	561.18304	-313.53998	-4.52137	551.66675	561.92352	143.64073	551.21399	570.42059	
4996	49.950	-137.85545	29.34792	-275.81555	356.45319	29.64923	-246.27440	-172.34387	15.89720	342.06857	316.34628	18.29299	372.38400	-9.48973	674.77783	-836.38837	43.65991	557.43915	-320.70718	198.92824	560.92267	-313.45743	-4.07738	551.81250	561.89545	144.32379	551.29608	570.47766	
4997	49.960	-138.14101	29.80243	-275.63556	356.24484	30.33820	-245.70656	-172.51561	15.80661	342.11362	316.29584	17.97513	372.42938	-9.09165	674.66687	-836.18616	44.14692	557.29608	-320.72916	199.36571	560.68298	-313.45059	-3.59792	551.96100	561.95477	144.80594	551.31506	570.47375	
4998	49.970	-138.47432	30.05224	-275.48816	355.84741	30.54128	-245.72633	-172.88463	15.63304	342.26953	315.94635	17.78682	372.40237	-8.74661	674.56866	-835.91083	44.36827	557.38702	-320.71072	199.60637	560.53442	-313.52014	-2.93968	552.21094	561.98291	145.30954	551.38782	570.44055	
4999	49.980	-138.94693	30.44747	-275.34036	355.69116	30.78878	-245.44522	-173.36681	15.22222	342.36679	315.65488	17.51105	372.44543	-6.68638	674.64008	-834.29675	44.84792	557.36591	-320.69269	200.16971	560.25385	-313.55908	-2.36466	552.29773	562.12408	145.83542	551.34753	570.41327	
5000	49.990	-139.30394	30.67931	-275.15723	354.85608	30.36747	-245.62131	-173.68675	14.72203	342.52328	315.15039	17.00824	372.53882	-8.63939	674.36310	-835.74890	45.22208	557.34680	-320.63937	200.65453	559.88062	-313.56473	-2.03761	552.55707	561.90155	146.37128	551.22321	570.75385	
5001	50.000	-139.58740	31.02865	-274.99298	354.56985	30.56416	-245.36765	-173.94376	14.42339	342.49573	314.37396	16.47986	372.58606	-8.57854	674.41754	-835.73041	45.62033	557.18756	-320.53543	200.82680	559.62915	-313.61954	-1.75682	552.79279	561.84088	146.79488	551.22119	570.73773	
5002	50.010	-139.80074	31.35808	-274.90738	354.21658	30.66709	-245.26439	-174.22678	14.27661	342.58615	313.99799	16.10833	372.65900	-8.56457	674.57050	-835.60406	45.95907	557.07806	-320.43414	201.06509	559.39172	-313.61029	-1.15289	552.96893	562.07300	147.20538	551.29059	570.77661	
5003	50.020	-140.00497	31.59146	-274.81674	354.00909	30.85662	-245.07104	-174.54039	14.06449	342.65909	313.67587	15.63673	372.84644	-8.56361	674.66833	-835.52966	46.37255	556.93707	-320.39240	201.37576	559.14734	-313.56973	-0.84674	553.11121	562.10510	147.42540	551.29462	570.81982	
5004	50.030	-140.35434	31.93252	-274.62589	353.60187	31.23325	-244.88168	-174.85506	13.91343	342.82666	313.66931	15.40632	373.15613	-8.52842	674.80109	-835.48395	46.73154	556.85504	-320.27679	201.71240	559.01471	-313.70898	-0.55633	553.22729	562.09735	147.80228	551.32648	570.85101	
5005	50.040	-140.88148	32.30266	-274.46820	352.97150	31.33883	-244.87517	-175.46542	13.62267	342.92575	313.45660	15.26095	373.45477	-6.60934	675.02759	-834.00580	46.84517	556.79425	-320.19589	201.82681	558.84308	-313.52164	-0.25308	553.28644	562.16382	148.05777	551.23230	570.93420	
5006	50.050	-141.50871	32.73630	-274.28809	352.60834	31.53366	-244.78506	-176.02991	13.36379	342.92398	313.09183	14.97973	373.60187	-6.48277	675.16565	-834.02338	46.90947	556.78461	-320.11371	201.81172	558.72040	-313.53488	0.20932	553.31317	562.25037	148.05171	551.08905	570.64166	
5007	50.060	-142.06212	33.10310	-274.04849	351.92892	31.89525	-244.38092	-176.48288	13.04578	342.98990	312.53210	14.42509	373.64957	-8.36984	674.98450	-835.42340	46.79869	556.87170	-320.10559	201.80252	558.27118	-313.13101	0.55222	553.39331	562.30267	148.34300	550.95947	570.69373	
5008	50.070	-142.48027	33.35304	-273.84177	351.31430	32.25695	-244.29497	-177.01996	12.71644	343.03546	311.65976	13.89539	373.62997	-8.33716	675.06183	-835.31824	46.76366	556.87396	-320.06134	201.62337	558.27722	-313.54111	0.78628	553.42633	562.35107	148.70001	550.77844	570.75562	
5009	50.080	-142.96213	33.54759	-273.66599	351.10684	32.53916	-244.06190	-177.37354	12.17122	343.24908	311.23734	13.25733	373.79846	-8.22167	675.22827	-835.32532	46.62934	556.96509	-319.98596	201.62190	558.11853	-313.46378	0.88171	553.42889	562.38647	149.03386	550.63013	570.81427	
5010	50.090	-143.46602	33.91214	-273.41019	350.77136	33.35797	-243.34717	-178.05009	11.95123	343.26160	310.97610	12.78663	373.94199	-8.06336	675.43701	-835.33429	46.59521	556.94940	-319.90948	201.64122	558.03339	-313.37863	1.03765	553.39941	562.44940	149.18965	550.50824	570.91150	
5011	50.100	-143.93208	34.35933	-273.13141	350.00763	32.96777	-243.56102	-178.30710	11.72763	343.44781	310.44232	12.43278	373.91620	-7.96358	675.55560	-835.31152	46.52046	556.96240	-319.88388	201.62543	558.00586	-313.28745	0.79964	553.27832	562.36084	149.14027	550.37695	570.98981	
5012	50.110	-144.42917	34.68623	-272.89175	349.45663	33.11779	-243.42159	-178.88121	11.14978	343.63876	309.82037	12.13745	374.05173	-12.70812	677.37372	-839.72870	46.36633	557.13623	-319.81711	201.65788	558.00098	-313.16205	1.09514	553.09320	562.71625	148.96054	550.25995	571.04010	
